<?xml version="1.0" standalone="no"?>
<!DOCTYPE svg PUBLIC "-//W3C//DTD SVG 20010904//EN"
 "http://www.w3.org/TR/2001/REC-SVG-20010904/DTD/svg10.dtd">
<svg version="1.0" xmlns="http://www.w3.org/2000/svg"
 width="250.000000pt" height="250.000000pt" viewBox="0 0 250.000000 250.000000"
 preserveAspectRatio="xMidYMid meet">
<metadata>
Created by potrace 1.11, written by Peter Selinger 2001-2013
</metadata>
<g transform="translate(0.000000,250.000000) scale(0.100000,-0.100000)"
fill="#000000" stroke="none">
<path d="M1131 2389 c-60 -60 -73 -128 -38 -197 14 -30 14 -32 -1 -33 -9 -1
-46 -3 -81 -5 -113 -6 -181 -31 -436 -158 -137 -69 -267 -130 -289 -137 -37
-11 -149 -8 -224 7 -44 9 -41 -6 10 -57 55 -55 92 -69 191 -75 44 -2 82 -6 83
-7 2 -1 -16 -52 -40 -112 -24 -61 -83 -211 -131 -335 -108 -276 -141 -350
-162 -365 -23 -17 -14 -136 16 -198 48 -99 142 -176 252 -205 20 -5 67 -10
105 -10 199 0 362 152 378 351 2 37 0 50 -14 57 -15 8 -36 49 -85 165 -26 61
-124 313 -159 410 -21 55 -41 109 -46 120 -24 59 -50 124 -50 129 0 2 30 14
67 27 38 12 125 48 195 80 153 70 218 90 300 92 l61 2 41 -80 41 -80 -1 -605
c0 -602 0 -605 -23 -670 -38 -108 -68 -142 -178 -201 -180 -96 -205 -147 -96
-201 48 -23 49 -23 428 -23 339 0 385 2 424 18 52 20 70 42 65 77 -8 44 -38
72 -123 116 -145 74 -207 155 -228 304 -2 14 -5 282 -7 597 l-2 572 31 69 c32
68 72 125 84 118 3 -2 31 -7 61 -11 63 -8 168 -45 292 -104 48 -22 123 -53
165 -67 43 -14 80 -28 82 -29 3 -4 -152 -418 -183 -490 -7 -16 -37 -90 -66
-163 -29 -74 -64 -147 -78 -164 -22 -26 -24 -35 -18 -89 13 -124 95 -236 216
-293 59 -28 74 -31 160 -31 121 1 187 25 267 98 75 69 113 148 113 235 0 51
-5 69 -24 95 -22 30 -63 129 -198 477 -82 212 -119 313 -115 317 2 1 39 5 82
8 87 6 139 29 188 84 36 41 35 55 -5 47 -18 -4 -65 -9 -104 -12 -90 -8 -143 7
-289 82 -407 208 -408 208 -569 219 -37 2 -70 6 -72 8 -2 2 3 22 12 45 26 65
12 124 -42 178 l-43 44 -75 0 c-75 0 -76 0 -115 -41z m1104 -1169 c59 -151
109 -282 112 -290 3 -13 -26 -15 -219 -15 -142 0 -223 4 -223 10 0 17 37 119
46 129 5 6 9 17 9 25 0 9 6 27 13 41 7 14 21 48 31 75 10 28 24 64 31 80 7 17
29 74 50 128 20 54 38 97 40 95 2 -2 51 -127 110 -278z m-1845 260 c0 -6 9
-29 19 -53 37 -79 180 -462 183 -487 l3 -25 -205 0 c-113 0 -212 1 -221 3 -17
4 -23 -14 126 367 25 66 53 134 61 152 8 17 14 36 14 42 0 6 5 11 10 11 6 0
10 -5 10 -10z"/>
</g>
</svg>
